PathFileType	4	(X/Y/Z) flx_0kg_2.trc																										
DataRate	CameraRate	NumFrames	NumMarkers	Units	OrigDataRate	OrigDataStartFrame	OrigNumFrames																					
100	100	49	9	mm	100	425	848																					
Frame#	Time	gu			centelbow			EpL			centpxt8			centijc7			ij			ts			aa			ai		
		X1	Y1	Z1	X2	Y2	Z2	X3	Y3	Z3	X4	Y4	Z4	X5	Y5	Z5	X6	Y6	Z6	X7	Y7	Z7	X8	Y8	Z8	X9	Y9	Z9  
424	4.24	-98.591	62.92	103.813	17.848	255.343	205.79	-6.27	271.957	192.31	-46.816	-153.158	-8.669	-46.816	31.938	-8.669	0	0	0	-144.514	-18.807	54.194	-133.591	84.831	112.199	-121.277	-70.35	152.627
425	4.25	-98.799	62.321	104.119	19.144	253.537	206.639	-4.877	270.37	193.257	-46.816	-153.158	-8.669	-46.816	31.938	-8.669	0	0	0	-144.861	-18.792	54.013	-133.539	84.687	112.226	-121.686	-70.619	152.311
426	4.26	-99.133	61.81	104.377	20.333	251.789	207.433	-3.582	268.845	194.145	-46.816	-153.158	-8.669	-46.816	31.938	-8.669	0	0	0	-145.349	-18.488	53.527	-133.724	84.87	111.895	-122.224	-70.528	151.724
427	4.27	-99.29	61.763	104.528	21.683	250.546	208.02	-2.127	267.816	194.821	-46.816	-153.158	-8.669	-46.816	31.938	-8.669	0	0	0	-145.749	-18.135	53.033	-133.858	85.11	111.548	-122.679	-70.373	151.138
428	4.28	-99.269	62.123	104.62	23.2	249.766	208.428	-0.517	267.238	195.326	-46.816	-153.158	-8.669	-46.816	31.938	-8.669	0	0	0	-145.997	-18.01	52.769	-133.811	85.098	111.464	-122.98	-70.484	150.76
429	4.29	-99.334	62.566	104.787	24.648	249.085	208.823	1.013	266.752	195.837	-46.816	-153.158	-8.669	-46.816	31.938	-8.669	0	0	0	-146.17	-18.153	52.746	-133.632	84.786	111.663	-123.17	-70.915	150.586
430	4.3	-99.547	62.787	105.152	25.985	248.162	209.375	2.429	266.025	196.512	-46.816	-153.158	-8.669	-46.816	31.938	-8.669	0	0	0	-146.349	-18.355	52.883	-133.423	84.392	112.05	-123.322	-71.44	150.542
431	4.31	-99.69	62.662	105.684	27.409	246.867	210.082	3.943	264.93	197.333	-46.816	-153.158	-8.669	-46.816	31.938	-8.669	0	0	0	-146.61	-18.461	53.213	-133.303	84.089	112.637	-123.57	-71.874	150.69
432	4.32	-99.675	62.248	106.233	28.955	245.262	210.849	5.595	263.526	198.195	-46.816	-153.158	-8.669	-46.816	31.938	-8.669	0	0	0	-146.988	-18.513	53.737	-133.337	83.842	113.42	-124.009	-72.248	151.052
433	4.33	-99.576	61.799	106.671	30.517	243.605	211.583	7.267	262.07	199.017	-46.816	-153.158	-8.669	-46.816	31.938	-8.669	0	0	0	-147.428	-18.47	54.155	-133.487	83.695	114.094	-124.538	-72.514	151.319
434	4.34	-99.488	61.629	106.925	32.066	242.216	212.12	8.917	260.878	199.66	-46.816	-153.158	-8.669	-46.816	31.938	-8.669	0	0	0	-147.845	-18.188	54.085	-133.668	83.803	114.265	-124.973	-72.514	151.096
435	4.35	-99.578	61.831	106.977	33.554	241.171	212.322	10.491	260.031	200	-46.816	-153.158	-8.669	-46.816	31.938	-8.669	0	0	0	-148.201	-17.748	53.546	-133.792	84.083	113.942	-125.264	-72.331	150.398
436	4.36	-99.885	62.276	106.925	34.935	240.336	212.294	11.945	259.395	200.142	-46.816	-153.158	-8.669	-46.816	31.938	-8.669	0	0	0	-148.424	-17.366	52.98	-133.735	84.307	113.574	-125.414	-72.202	149.671
437	4.37	-100.185	62.687	106.933	36.337	239.446	212.301	13.411	258.702	200.342	-46.816	-153.158	-8.669	-46.816	31.938	-8.669	0	0	0	-148.419	-17.094	52.783	-133.399	84.411	113.577	-125.387	-72.196	149.317
438	4.38	-100.316	62.683	107.067	37.906	238.095	212.47	15.05	257.553	200.705	-46.816	-153.158	-8.669	-46.816	31.938	-8.669	0	0	0	-148.317	-16.864	52.919	-132.938	84.455	113.935	-125.323	-72.258	149.296
439	4.39	-100.314	62.21	107.308	39.597	236.223	212.802	16.831	255.888	201.209	-46.816	-153.158	-8.669	-46.816	31.938	-8.669	0	0	0	-148.426	-16.604	53.06	-132.675	84.51	114.319	-125.521	-72.315	149.274
440	4.4	-100.171	61.759	107.634	41.312	234.377	213.323	18.656	254.248	201.866	-46.816	-153.158	-8.669	-46.816	31.938	-8.669	0	0	0	-148.807	-16.327	53.022	-132.683	84.581	114.523	-126.02	-72.354	149.081
441	4.41	-99.921	61.764	107.964	42.955	233.057	213.933	20.415	253.121	202.585	-46.816	-153.158	-8.669	-46.816	31.938	-8.669	0	0	0	-149.218	-16.21	52.936	-132.742	84.511	114.649	-126.573	-72.519	148.864
442	4.42	-99.867	62.078	108.215	44.335	232.086	214.456	21.906	252.335	203.216	-46.816	-153.158	-8.669	-46.816	31.938	-8.669	0	0	0	-149.545	-16.334	52.963	-132.76	84.222	114.864	-127.067	-72.89	148.785
443	4.43	-100.225	62.242	108.423	45.433	230.857	214.899	23.113	251.301	203.797	-46.816	-153.158	-8.669	-46.816	31.938	-8.669	0	0	0	-149.906	-16.466	53.029	-132.862	83.922	115.13	-127.577	-73.271	148.738
444	4.44	-100.715	62.086	108.667	46.597	229.112	215.371	24.392	249.774	204.443	-46.816	-153.158	-8.669	-46.816	31.938	-8.669	0	0	0	-150.298	-16.362	52.96	-133.029	83.843	115.294	-128.05	-73.44	148.525
445	4.45	-100.89	61.793	108.944	48.133	227.153	215.868	26.043	248.038	205.133	-46.816	-153.158	-8.669	-46.816	31.938	-8.669	0	0	0	-150.552	-16.096	52.741	-133.049	83.91	115.328	-128.328	-73.47	148.135
446	4.46	-100.728	61.598	109.14	49.886	225.405	216.224	27.899	246.495	205.678	-46.816	-153.158	-8.669	-46.816	31.938	-8.669	0	0	0	-150.643	-15.953	52.551	-132.86	83.842	115.396	-128.453	-73.638	147.765
447	4.47	-100.558	61.628	109.153	51.463	224.077	216.319	29.56	245.342	205.952	-46.816	-153.158	-8.669	-46.816	31.938	-8.669	0	0	0	-150.745	-15.998	52.523	-132.653	83.583	115.618	-128.632	-73.993	147.567
448	4.48	-100.588	61.691	109.091	52.695	222.864	216.383	30.872	244.292	206.181	-46.816	-153.158	-8.669	-46.816	31.938	-8.669	0	0	0	-150.961	-16.039	52.539	-132.586	83.345	115.864	-128.944	-74.318	147.43
449	4.49	-100.797	61.457	109.155	53.678	221.285	216.75	31.95	242.88	206.7	-46.816	-153.158	-8.669	-46.816	31.938	-8.669	0	0	0	-151.182	-16.022	52.441	-132.588	83.187	115.976	-129.251	-74.551	147.199
450	4.5	-101.081	61.045	109.382	54.567	219.436	217.411	32.948	241.208	207.51	-46.816	-153.158	-8.669	-46.816	31.938	-8.669	0	0	0	-151.268	-16.051	52.28	-132.514	82.999	116.016	-129.415	-74.807	146.916
451	4.51	-101.37	60.884	109.686	55.464	217.802	218.15	33.953	239.751	208.407	-46.816	-153.158	-8.669	-46.816	31.938	-8.669	0	0	0	-151.272	-16.096	52.155	-132.386	82.799	116.092	-129.484	-75.074	146.667
452	4.52	-101.606	61.109	109.947	56.472	216.521	218.771	35.06	238.648	209.214	-46.816	-153.158	-8.669	-46.816	31.938	-8.669	0	0	0	-151.299	-16.06	52.06	-132.264	82.669	116.209	-129.558	-75.275	146.434
453	4.53	-101.671	61.439	110.07	57.737	215.288	219.175	36.413	237.593	209.839	-46.816	-153.158	-8.669	-46.816	31.938	-8.669	0	0	0	-151.296	-15.941	51.976	-132.068	82.596	116.361	-129.598	-75.427	146.19
454	4.54	-101.581	61.494	110.168	59.187	213.729	219.541	37.948	236.215	210.447	-46.816	-153.158	-8.669	-46.816	31.938	-8.669	0	0	0	-151.237	-15.754	51.892	-131.79	82.569	116.539	-129.591	-75.54	145.928
455	4.55	-101.569	61.239	110.425	60.474	211.885	220.117	39.326	234.545	211.247	-46.816	-153.158	-8.669	-46.816	31.938	-8.669	0	0	0	-151.282	-15.479	51.739	-131.618	82.62	116.659	-129.696	-75.578	145.589
456	4.56	-101.72	61.033	110.776	61.435	210.241	220.784	40.387	233.06	212.086	-46.816	-153.158	-8.669	-46.816	31.938	-8.669	0	0	0	-151.479	-15.178	51.494	-131.609	82.7	116.684	-129.967	-75.582	145.164
457	4.57	-101.787	61.137	111.006	62.327	209.133	221.226	41.382	232.09	212.641	-46.816	-153.158	-8.669	-46.816	31.938	-8.669	0	0	0	-151.625	-14.999	51.281	-131.565	82.671	116.726	-130.227	-75.688	144.794
458	4.58	-101.527	61.421	111.018	63.444	208.39	221.332	42.603	231.467	212.814	-46.816	-153.158	-8.669	-46.816	31.938	-8.669	0	0	0	-151.629	-15	51.185	-131.412	82.479	116.865	-130.389	-75.946	144.566
459	4.59	-101.108	61.563	110.939	64.66	207.559	221.348	43.932	230.751	212.87	-46.816	-153.158	-8.669	-46.816	31.938	-8.669	0	0	0	-151.679	-15.1	51.146	-131.343	82.205	117.048	-130.605	-76.281	144.412
460	4.6	-100.985	61.394	110.979	65.564	206.32	221.623	44.965	229.638	213.175	-46.816	-153.158	-8.669	-46.816	31.938	-8.669	0	0	0	-151.95	-15.202	51.135	-131.513	81.928	117.263	-131.021	-76.62	144.277
461	4.61	-101.308	61.133	111.182	66.054	204.828	222.205	45.595	228.286	213.804	-46.816	-153.158	-8.669	-46.816	31.938	-8.669	0	0	0	-152.378	-15.237	51.156	-131.817	81.692	117.539	-131.576	-76.924	144.149
462	4.62	-101.728	61.08	111.484	66.504	203.431	222.922	46.181	227.036	214.6	-46.816	-153.158	-8.669	-46.816	31.938	-8.669	0	0	0	-152.781	-15.173	51.156	-132.038	81.523	117.823	-132.099	-77.17	143.969
463	4.63	-101.983	61.118	111.844	67.207	202.036	223.654	47.016	225.793	215.445	-46.816	-153.158	-8.669	-46.816	31.938	-8.669	0	0	0	-153.069	-15.03	51.115	-132.087	81.411	118.076	-132.509	-77.362	143.73
464	4.64	-102.195	60.919	112.231	68.056	200.3	224.356	48.001	224.217	216.282	-46.816	-153.158	-8.669	-46.816	31.938	-8.669	0	0	0	-153.304	-14.867	51.12	-132.053	81.314	118.369	-132.876	-77.535	143.538
465	4.65	-102.479	60.422	112.628	68.898	198.216	224.998	48.979	222.296	217.073	-46.816	-153.158	-8.669	-46.816	31.938	-8.669	0	0	0	-153.519	-14.716	51.183	-132.012	81.211	118.712	-133.218	-77.71	143.407
466	4.66	-102.719	59.877	113	69.753	196.159	225.538	49.961	220.392	217.763	-46.816	-153.158	-8.669	-46.816	31.938	-8.669	0	0	0	-153.677	-14.569	51.167	-131.946	81.118	118.966	-133.435	-77.873	143.191
467	4.67	-102.734	59.621	113.216	70.729	194.559	225.851	51.04	218.925	218.226	-46.816	-153.158	-8.669	-46.816	31.938	-8.669	0	0	0	-153.762	-14.44	51.069	-131.826	81.015	119.128	-133.488	-78.046	142.878
468	4.68	-102.406	59.744	113.189	71.925	193.493	225.901	52.323	217.973	218.422	-46.816	-153.158	-8.669	-46.816	31.938	-8.669	0	0	0	-153.744	-14.28	51.012	-131.585	80.937	119.332	-133.391	-78.195	142.589
469	4.69	-101.862	59.991	113.037	73.239	192.596	225.908	53.726	217.185	218.555	-46.816	-153.158	-8.669	-46.816	31.938	-8.669	0	0	0	-153.677	-13.939	50.917	-131.239	81.017	119.507	-133.256	-78.187	142.244
470	4.7	-101.436	60.086	112.908	74.364	191.515	226.068	54.961	216.218	218.806	-46.816	-153.158	-8.669	-46.816	31.938	-8.669	0	0	0	-153.796	-13.465	50.67	-131.002	81.182	119.57	-133.389	-78.099	141.728
471	4.71	-101.249	59.989	112.856	75.207	190.208	226.393	55.941	215.031	219.181	-46.816	-153.158	-8.669	-46.816	31.938	-8.669	0	0	0	-154.174	-13.138	50.423	-130.968	81.129	119.705	-133.923	-78.235	141.186
472	4.72	-101.168	59.833	112.91	75.925	188.811	226.871	56.817	213.762	219.672	-46.816	-153.158	-8.669	-46.816	31.938	-8.669	0	0	0	-154.582	-13.044	50.299	-130.961	80.786	120.032	-134.595	-78.667	140.741
